# xmcd
#
# Track frame offsets: 
#        150
#        20260
#        41055
#        66895
#        83688
#        109560
#        131583
#        151238
#        173978
#        196480
#
# Disc length: 2835 seconds
#
# Revision: 3
# Processed by: cddbd v1.5.2PL0 Copyright (c) Steve Scherf et al.
# Submitted via: ExactAudioCopyFreeDBPlugin 1.0
#
DISCID=7b0b110a
DTITLE=Tyler Collins - Girls Nite Out
DYEAR=1989
DGENRE=blues
TTITLE0=Strut
TTITLE1=Girls Nite Out
TTITLE2=Whatcha Gonna Do
TTITLE3=Love Talk
TTITLE4=Give And Take
TTITLE5=I Only Wanted
TTITLE6=Second Chance
TTITLE7=Beyond A Shadow Of A Doubt
TTITLE8=Two In Love
TTITLE9=You And Me (a duet with Grady Harrell)
EXTD=
EXTT0=
EXTT1=
EXTT2=
EXTT3=
EXTT4=
EXTT5=
EXTT6=
EXTT7=
EXTT8=
EXTT9=
PLAYORDER=
